<svg viewBox="0 0 64 64" fill="none" xmlns="http://www.w3.org/2000/svg">
<mask id="ring9" style="mask-type:alpha" maskUnits="userSpaceOnUse" x="0" y="0" width="64" height="64">
<path fill-rule="evenodd" clip-rule="evenodd" d="M32 57.9537C46.3338 57.9537 57.9537 46.3338 57.9537 32C57.9537 17.6662 46.3338 6.04632 32 6.04632C17.6662 6.04632 6.04632 17.6662 6.04632 32C6.04632 46.3338 17.6662 57.9537 32 57.9537ZM32 64C49.6731 64 64 49.6731 64 32C64 14.3269 49.6731 0 32 0C14.3269 0 0 14.3269 0 32C0 49.6731 14.3269 64 32 64Z" fill="black"/>
</mask>
<circle cx="32" cy="32" r="32" fill="white"/>
<g mask="url(#ring9)">
<path d="M0.000144267 -0.282654H32.0001V31.7174H0.000144267V-0.282654Z" fill="#F45EAC"/>
<path d="M32.0001 -0.282654L64 -0.282603V31.7174L32.0001 31.7174V-0.282654Z" fill="#FFBD59"/>
<path d="M0.000144267 31.7174H32.0001L32 63.7173H0L0.000144267 31.7174Z" fill="#1A6DAF"/>
<path d="M32.0001 31.7174L64 31.7174V63.7173H32L32.0001 31.7174Z" fill="#25ABBE"/>
</g>
<path d="M11.8613 23.6367L28.6573 33.3339V52.7494L45.452 43.0522V23.6367L28.6557 13.938L11.8613 23.6367Z" fill="#242424"/>
</svg>
