<svg width="101" height="26" viewBox="0 0 101 26" fill="none" xmlns="http://www.w3.org/2000/svg">
<path d="M0 0L5.81952 1.53145C10.8993 2.86823 16.2385 2.86823 21.3182 1.53145L27.1378 0V25.7095L22.7384 24.3202C16.7706 22.4356 10.3671 22.4356 4.39938 24.3202L0 25.7095V0Z" fill="#005CF1"/>
<path d="M20.2788 15.6534V14.3724L14.8711 10.1038V7.39992C14.8711 7.04137 14.7287 6.69751 14.4752 6.44397C14.2216 6.19044 13.8778 6.048 13.5192 6.048C13.1607 6.048 12.8168 6.19044 12.5633 6.44397C12.3097 6.69751 12.1673 7.04137 12.1673 7.39992V10.1747L6.75964 14.4434V15.6527L12.1673 13.7533V16.8633L10.1394 18.2153V19.5672L13.5192 18.2153L16.899 19.5672V18.2153L14.8711 16.8633V13.6965L20.2788 15.6534Z" fill="white"/>
<g clip-path="url(#clip0_1_85)">
<path d="M33.0007 20.1893L39.7005 5.25591H43.1363L49.8575 20.1893H46.207L40.7097 7.00523H42.084L36.5653 20.1893H33.0007ZM36.3506 16.9893L37.2739 14.3653H45.0045L45.9493 16.9893H36.3506ZM58.5084 20.4453C57.3202 20.4453 56.2178 20.2533 55.2014 19.8693C54.1993 19.4853 53.3261 18.9448 52.5816 18.2479C51.8515 17.551 51.2789 16.7333 50.8638 15.7946C50.4629 14.8559 50.2625 13.8319 50.2625 12.7226C50.2625 11.6132 50.4629 10.5892 50.8638 9.65058C51.2789 8.71192 51.8587 7.89414 52.6031 7.19723C53.3475 6.50035 54.2208 5.95991 55.2229 5.57591C56.225 5.19191 57.313 4.99991 58.4869 4.99991C59.6751 4.99991 60.7631 5.19191 61.7509 5.57591C62.753 5.95991 63.6191 6.50035 64.3492 7.19723C65.0936 7.89414 65.6734 8.71192 66.0886 9.65058C66.5037 10.575 66.7113 11.599 66.7113 12.7226C66.7113 13.8319 66.5037 14.863 66.0886 15.8159C65.6734 16.7546 65.0936 17.5724 64.3492 18.2693C63.6191 18.9519 62.753 19.4853 61.7509 19.8693C60.7631 20.2533 59.6823 20.4453 58.5084 20.4453ZM58.4869 17.5013C59.1597 17.5013 59.7753 17.3875 60.3336 17.1599C60.9063 16.9324 61.4073 16.6053 61.8368 16.1786C62.2663 15.7519 62.5955 15.247 62.8246 14.6639C63.0679 14.0808 63.1896 13.4337 63.1896 12.7226C63.1896 12.0115 63.0679 11.3644 62.8246 10.7813C62.5955 10.1981 62.2663 9.69325 61.8368 9.26658C61.4216 8.8399 60.9277 8.51279 60.3551 8.28523C59.7825 8.05769 59.1597 7.94392 58.4869 7.94392C57.8141 7.94392 57.1913 8.05769 56.6187 8.28523C56.0604 8.51279 55.5665 8.8399 55.137 9.26658C54.7075 9.69325 54.3711 10.1981 54.1277 10.7813C53.8987 11.3644 53.7842 12.0115 53.7842 12.7226C53.7842 13.4195 53.8987 14.0666 54.1277 14.6639C54.3711 15.247 54.7004 15.7519 55.1155 16.1786C55.545 16.6053 56.0461 16.9324 56.6187 17.1599C57.1913 17.3875 57.8141 17.5013 58.4869 17.5013ZM69.3257 20.1893V5.25591H76.1544C77.7864 5.25591 79.2251 5.5688 80.4706 6.19457C81.7161 6.80612 82.6895 7.66657 83.391 8.7759C84.0925 9.88525 84.4432 11.2008 84.4432 12.7226C84.4432 14.2301 84.0925 15.5457 83.391 16.6693C82.6895 17.7786 81.7161 18.6461 80.4706 19.2719C79.2251 19.8835 77.7864 20.1893 76.1544 20.1893H69.3257ZM72.8045 17.3519H75.9826C76.9847 17.3519 77.8508 17.167 78.5809 16.7973C79.3253 16.4133 79.8979 15.8728 80.2988 15.1759C80.7139 14.479 80.9215 13.6613 80.9215 12.7226C80.9215 11.7697 80.7139 10.9519 80.2988 10.2692C79.8979 9.57236 79.3253 9.03903 78.5809 8.66925C77.8508 8.28523 76.9847 8.09323 75.9826 8.09323H72.8045V17.3519ZM87.0668 20.1893V5.25591H94.4108C96.3004 5.25591 97.7177 5.61146 98.6626 6.32257C99.6217 7.03368 100.101 7.97236 100.101 9.13858C100.101 9.92081 99.908 10.6035 99.5215 11.1866C99.135 11.7555 98.6053 12.1964 97.9324 12.5093C97.2596 12.8221 96.4865 12.9786 95.6133 12.9786L96.0213 12.1039C96.9661 12.1039 97.8036 12.2604 98.5337 12.5733C99.2638 12.8719 99.8293 13.3199 100.23 13.9173C100.645 14.5146 100.853 15.247 100.853 16.1146C100.853 17.3946 100.345 18.3973 99.3282 19.1226C98.3118 19.8337 96.8158 20.1893 94.8402 20.1893H87.0668ZM90.524 17.5866H94.5825C95.4844 17.5866 96.1644 17.4444 96.6225 17.1599C97.095 16.8613 97.3312 16.3919 97.3312 15.7519C97.3312 15.1261 97.095 14.6639 96.6225 14.3653C96.1644 14.0524 95.4844 13.8959 94.5825 13.8959H90.2663V11.3786H93.9813C94.8259 11.3786 95.4701 11.2364 95.9139 10.9519C96.372 10.6532 96.6011 10.2053 96.6011 9.60792C96.6011 9.02481 96.372 8.59103 95.9139 8.30657C95.4701 8.00792 94.8259 7.85858 93.9813 7.85858H90.524V17.5866Z" fill="black"/>
</g>
<defs>
<clipPath id="clip0_1_85">
<rect width="68" height="16" fill="white" transform="translate(33 5)"/>
</clipPath>
</defs>
</svg>
