<svg viewBox="0 0 64 64" fill="none" xmlns="http://www.w3.org/2000/svg">
    <path fill-rule="evenodd" clip-rule="evenodd" d="M7.4592 0C3.3396 0 0 3.31698 0 7.40867V39.1111C10.2184 38.0529 20.9728 37.4882 32.0749 37.4882C43.1227 37.4882 53.8264 38.0476 64 39.0958V7.40867C64 3.31698 60.6605 0 56.5408 0H7.4592Z" fill="#1686B9"/>
    <path fill-rule="evenodd" clip-rule="evenodd" d="M64 47.9828V39.1151C53.8264 37.9534 43.1227 37.3333 32.0749 37.3333C20.9728 37.3333 10.2184 37.9595 0 39.1321V48C10.2184 46.8272 20.9728 46.201 32.0749 46.201C43.1227 46.201 53.8264 46.821 64 47.9828Z" fill="white"/>
    <path fill-rule="evenodd" clip-rule="evenodd" d="M64 47.8293C53.8264 46.7813 43.1227 46.2222 32.0749 46.2222C20.9728 46.2222 10.2184 46.7868 0 47.8448V56.5926C0 60.6836 3.3396 64 7.4592 64H56.5408C60.1453 64 63.1528 61.4612 63.8485 58.0858C63.9477 57.6034 64 57.1042 64 56.5928V47.8293Z" fill="#2E5F72"/>
</svg>
